<svg id="Layer_1" data-name="Layer 1" xmlns="http://www.w3.org/2000/svg" viewBox="0 0 178.02 67.62"><defs><style>.cls-1{fill:#d6b757;}.cls-2{fill:#d5b657;}.cls-3{fill:none;stroke:#231f20;stroke-miterlimit:10;stroke-width:1.54px;}</style></defs><title>Untitled-3</title><path class="cls-1" d="M537.5,272.47l7.77,4.28.58-1.67a7.73,7.73,0,0,1,.44-1.12.37.37,0,0,1,.3-.21.33.33,0,0,1,.29.2.89.89,0,0,1,.11.45,6,6,0,0,1-.43,1.58l-3.76,10.5,3-.32a7.36,7.36,0,0,1,3.13.62A7.81,7.81,0,0,1,552,289a11.12,11.12,0,0,1,2,3.52,13.09,13.09,0,0,1,.73,4.47,18.69,18.69,0,0,1-2.28,8.81q-2.28,4.33-8.12,9.12-2.05-1.25-4.77-2.63-4.85,3.65-8,3.65a4,4,0,0,1-3.42-1.6,6,6,0,0,1-1.2-3.7,6.52,6.52,0,0,1,1.45-4.1,5.11,5.11,0,0,1,4.29-1.86,10.86,10.86,0,0,1,2.77.45l1.4-4.07-2.52.32a8.28,8.28,0,0,1-2.41-.41,5.58,5.58,0,0,1-2.49-1.43,6.25,6.25,0,0,1-1.46-2.44,9.53,9.53,0,0,1-.48-3,9.09,9.09,0,0,1,1.09-4.48,6.37,6.37,0,0,1,2.27-2.24l0-.34a16.06,16.06,0,0,1,1.42-6.06A41.6,41.6,0,0,1,537.5,272.47Zm.87,39.12q-4.29-2.36-7-2.35a2.73,2.73,0,0,0-2.24,1,2.52,2.52,0,0,0-.57,1.67,2.39,2.39,0,0,0,.57,1.67,3.28,3.28,0,0,0,2.6,1Q534.32,314.63,538.37,311.59Zm1.73-19.85a18.94,18.94,0,0,1-4.35.53,4.86,4.86,0,0,1-3.33-.91,5.64,5.64,0,0,1-1.46-2.84,4.51,4.51,0,0,0-1.24,3.24,4.31,4.31,0,0,0,1,2.89q1.27,1.47,4.36,1.47a20.26,20.26,0,0,0,3.69-.43Zm3.61-10.46a25.18,25.18,0,0,0-4.21-3,6.16,6.16,0,0,0-2.67-.75,3.06,3.06,0,0,0-2.63,1.5,6.14,6.14,0,0,0-1,3.52,5.67,5.67,0,0,0,.87,3.26,3,3,0,0,0,2.63,1.28,50.49,50.49,0,0,0,5.2-.57Zm-7.43,24.06a28,28,0,0,1,2.65,1.09q1,.5,3.65,2,4.17-3.13,4.17-6.06a2.94,2.94,0,0,0-.49-1.65A1.44,1.44,0,0,0,545,300a12.22,12.22,0,0,0-2.27.26,37,37,0,0,1-4.94.66Zm3.38-9.75a42.19,42.19,0,0,1,5.71-.67,3.84,3.84,0,0,1,3.34,1.63,6.6,6.6,0,0,1,1.15,3.91,7.4,7.4,0,0,1-1.13,3.86,19.47,19.47,0,0,1-4.85,4.67l3.5,1.52a17.5,17.5,0,0,0,3.49-5,13.91,13.91,0,0,0,1.23-5.88,11.56,11.56,0,0,0-.77-4.13,7.12,7.12,0,0,0-2.36-3.24,5.9,5.9,0,0,0-3.66-1.21,22.7,22.7,0,0,0-4.29.52Z" transform="translate(-526.98 -263.49)"/><path class="cls-1" d="M578.15,288.5l3.07,2.55-1.37,1.32v9.41a4.75,4.75,0,0,0,.25,1.94q.25.45.52.45a.7.7,0,0,0,.34-.09,8.25,8.25,0,0,0,.91-.69l.42.54-3.71,3a5.21,5.21,0,0,1-1.79-1.86,8.12,8.12,0,0,1-.4-3.05v-9.65l-1.3-1.32Zm1.31-5.92h2.2l-2.39,3.74h-.69Z" transform="translate(-526.98 -263.49)"/><path class="cls-1" d="M592.3,282.15v.45a4.41,4.41,0,0,0-1.93,1.74,6.74,6.74,0,0,0-.56,3.12v15.38l2,1.47.76-.62.43.62-3.47,2.63a17.71,17.71,0,0,0-2.35-1.82,9.16,9.16,0,0,0-2.06-.81v-.38a2.16,2.16,0,0,0,.75-.74,3,3,0,0,0,.37-1.06q0-.21.05-2.08V287.71a13.24,13.24,0,0,0-.12-2.19,3.35,3.35,0,0,0-.48-1.18,5.72,5.72,0,0,0-1.23-1.25l.28-.35a6,6,0,0,1,2.83,1.83,8.56,8.56,0,0,1,2.34-1.87A6,6,0,0,1,592.3,282.15Z" transform="translate(-526.98 -263.49)"/><path class="cls-1" d="M599.35,292.72l5.3-4.22a8.62,8.62,0,0,1,2.29,2.4,5.6,5.6,0,0,1,.54,2.62V303.9a12.46,12.46,0,0,0-2.77,1,18.36,18.36,0,0,0-3,2,13.62,13.62,0,0,0-3.48-2.09,10.79,10.79,0,0,0-3.57-.66v-.43a2.12,2.12,0,0,0,.89-.93,5.67,5.67,0,0,0,.23-2V293.1a3,3,0,0,0-.12-1,4.85,4.85,0,0,0-.68-1.08,5.36,5.36,0,0,1-.77-1.32,4.07,4.07,0,0,1,.61-3.76,10.11,10.11,0,0,1,3.11-2.31l.36.47q-1.78,1.3-1.78,2.47a1.51,1.51,0,0,0,.17.74,7.08,7.08,0,0,0,1,1.31,6.31,6.31,0,0,1,1.24,1.87A6.86,6.86,0,0,1,599.35,292.72Zm0,.93V302l4.57,2.06v-9.68a4.24,4.24,0,0,0-.32-1.87,3.61,3.61,0,0,0-1.35-1.25Z" transform="translate(-526.98 -263.49)"/><path class="cls-1" d="M618.16,288.5l4.88,5.69-7.75,5.43v3.15l4,1.59,2.72-1.85.38.52-5.6,3.91a22.24,22.24,0,0,0-2.82-1.31,25.46,25.46,0,0,0-3.15-.83v-.43a1.75,1.75,0,0,0,.79-.86,7.55,7.55,0,0,0,.2-2.21v-9.9q1.63-.59,2.7-1.07Q615.29,290,618.16,288.5Zm-2.63,2-.24.12v7.86l4.56-3.19Z" transform="translate(-526.98 -263.49)"/><path class="cls-1" d="M634.31,288.5l2.62,3.14L634.31,294l-2.19-2.77-1.71,1.56v10.07l2,1.42,1.78-1.4.4.55-4.44,3.55a15.46,15.46,0,0,0-2.37-1.82,8.85,8.85,0,0,0-2.1-.87v-.38a2.75,2.75,0,0,0,1-1.08,6.14,6.14,0,0,0,.23-2.08v-7.06a3.54,3.54,0,0,0-.3-1.77.82.82,0,0,0-.65-.44q-.39,0-1.07.69l-.42-.5L628,288.5a8.74,8.74,0,0,1,2,2,2.56,2.56,0,0,1,.35,1.44Z" transform="translate(-526.98 -263.49)"/><path class="cls-1" d="M652,292.67l5.15-4.17a7,7,0,0,1,2.1,2.06,5.69,5.69,0,0,1,.68,2.82v10.49a16.62,16.62,0,0,0-3.07,1.26,14.61,14.61,0,0,0-2.53,1.82,9.77,9.77,0,0,0-4.88-1.85,5.26,5.26,0,0,0-3.67,1.85,12.73,12.73,0,0,0-3.28-2.05,10.71,10.71,0,0,0-3.42-.74v-.41a2.07,2.07,0,0,0,1.1-.89,5.31,5.31,0,0,0,.32-2.26V294a10.27,10.27,0,0,0-.1-1.88,2.58,2.58,0,0,0-.56-.87,6.08,6.08,0,0,1-1-1.48,3.6,3.6,0,0,1-.26-1.41,3.91,3.91,0,0,1,.9-2.55,9.51,9.51,0,0,1,3.17-2.21l.31.45q-1.87,1.3-1.87,2.53a1.67,1.67,0,0,0,.21.81,17.48,17.48,0,0,0,1.26,1.47,6.15,6.15,0,0,1,1.19,1.89,6.47,6.47,0,0,1,.33,1.78l5-4.07a7.26,7.26,0,0,1,2,1.9A5.25,5.25,0,0,1,652,292.67Zm-7.92.74v8.88l4.36,1.82v-9.43a5,5,0,0,0-.31-2.09,4,4,0,0,0-1.42-1.32Zm7.92.15v8.65l4.39,1.85v-9.62a4.2,4.2,0,0,0-.25-1.76,5.69,5.69,0,0,0-1.45-1.39Z" transform="translate(-526.98 -263.49)"/><path class="cls-1" d="M675,289.24l.62.24a10.93,10.93,0,0,0-1.19,2.22,7,7,0,0,0-.25,2.08v7.37a6,6,0,0,0,.26,2.29.74.74,0,0,0,.62.46.9.9,0,0,0,.39-.1q.13-.08.74-.59l.42.54L673,306.94a6.72,6.72,0,0,1-1.79-1.86,5.2,5.2,0,0,1-.5-2.29l-5.25,4.15q-3-2.43-3-4.78a7,7,0,0,1,.64-3A19.69,19.69,0,0,1,666,295L664,290.51l.24-.45q.67.05,1,.05a4.85,4.85,0,0,0,3.59-1.61,12.5,12.5,0,0,0,2.75,1.18,8.73,8.73,0,0,0,2.29.44,1,1,0,0,0,.55-.13A3.63,3.63,0,0,0,675,289.24Zm-4.34,3.29-5.92-1.82,2.11,4.46,3.81,1.79Zm0,5.15-4.19-2a9.12,9.12,0,0,0-1,3.71,5.48,5.48,0,0,0,2.54,4.63l2.61-2.11Z" transform="translate(-526.98 -263.49)"/><path class="cls-1" d="M688.21,288.5l2.62,3.14L688.21,294,686,291.2l-1.71,1.56v10.07l2,1.42,1.78-1.4.4.55L684,306.94a15.46,15.46,0,0,0-2.37-1.82,8.85,8.85,0,0,0-2.1-.87v-.38a2.75,2.75,0,0,0,1-1.08,6.14,6.14,0,0,0,.23-2.08v-7.06a3.54,3.54,0,0,0-.3-1.77.82.82,0,0,0-.65-.44q-.39,0-1.07.69l-.42-.5,3.61-3.13a8.74,8.74,0,0,1,2,2,2.56,2.56,0,0,1,.35,1.44Z" transform="translate(-526.98 -263.49)"/><path class="cls-1" d="M700.12,288.5l4.88,5.69-7.75,5.43v3.15l4,1.59,2.72-1.85.38.52-5.6,3.91a22.24,22.24,0,0,0-2.82-1.31,25.46,25.46,0,0,0-3.15-.83v-.43a1.75,1.75,0,0,0,.79-.86,7.55,7.55,0,0,0,.2-2.21v-9.9q1.63-.59,2.7-1.07Q697.25,290,700.12,288.5Zm-2.63,2-.24.12v7.86l4.56-3.19Z" transform="translate(-526.98 -263.49)"/><path class="cls-2" d="M547.27,319.59c0-.87,0-1.76,0-2.66,0-.27,0-.55,0-.82a.16.16,0,0,1,.07-.13l.24-.18,2.16-1.59c.53-.39,1.07-.75,1.62-1.13l.08-.05a.2.2,0,0,1,.11,0h.68l.56,0,.54,0c.24,0,.49,0,.73,0h.51c.24,0,.47,0,.71,0h.46c.26,0,.52,0,.78,0h0c.59,0,1.19,0,1.78.05.38,0,.28,0,.43.26l.16.33a.11.11,0,0,0,.13,0l.14-.08,1-.66,1.69-1.14a1.46,1.46,0,0,1,.27-.14l2.23-.91.86-.35.06,0a0,0,0,0,0,0-.05l0-.05-3.71-4.11-.66-.73-.09-.1a.25.25,0,0,1,0-.1c0-.2-.07-.4-.1-.6a2.61,2.61,0,0,1,0-.29c0-.17,0-.34,0-.51,0-.84,0-1.67,0-2.51,0,0,0-.06,0-.08a.6.6,0,0,1,.06-.31l.54-1.22.73-1.65s0,0,0-.06,0,0-.06,0l-.33.25s-.06.06-.1,0,0-.07,0-.11a1.47,1.47,0,0,1,0-.15q0-.41,0-.82c0-.17,0-.34,0-.51s0-.1,0-.15a.08.08,0,0,1,0-.07l.15-.07,1.36-.62.15-.07a.1.1,0,0,0,.07-.08s0,0,0,0c0-.57.05-1.14.05-1.71,0-.18,0-.35,0-.53s0-.45,0-.67,0-.55,0-.82,0-.45,0-.67,0-.56,0-.84,0-.46,0-.7,0-.55,0-.82,0-.48,0-.72,0-.53,0-.8,0-.46,0-.7,0-.55,0-.82,0-.46,0-.7,0-.55,0-.82,0-.46,0-.7,0-.32,0-.48,0-.08,0-.13a.06.06,0,0,0-.06-.06h-.46l-1,.05-.37,0h-.15c-.21,0-.42,0-.63,0h-.12a.07.07,0,0,1-.06-.06s0-.07,0-.11,0-.27,0-.4a1.37,1.37,0,0,0,0-.36c0-.2-.08-.4-.11-.6l-.13-.69-.12-.64-.08-.39s0-.1,0-.15,0-.11.11-.13l.92-.2,1.76-.42.49-.12a.1.1,0,0,0,.09-.09c0-.14,0-.28,0-.42,0-.34,0-.69.07-1,0-.14,0-.28,0-.42a.13.13,0,0,0-.07-.13l-.77-.48-1.86-1.16-2-1.25-.14-.09a.16.16,0,0,1-.09-.14c0-.18,0-.37,0-.55s0-.59,0-.88,0-.56,0-.84a4.75,4.75,0,0,0,0-.55,1.62,1.62,0,0,1,0-.19c0-.31,0-.62,0-.93,0-.5,0-1-.05-1.5s0-.9,0-1.35c0-.12,0-.24,0-.36s0-.07-.1-.06a1.15,1.15,0,0,1-.29,0h0s0,0,0,0l.19-.09,1.52-.63,2.12-.87a1.76,1.76,0,0,0,.41-.19l0,0a3.65,3.65,0,0,0,.58-.21,2.54,2.54,0,0,1,.4-.14s.06,0,.06-.08a.8.8,0,0,1,0-.19.74.74,0,0,0,0-.19c0-.06,0-.11,0-.17s0-.13,0-.19,0,0,0-.06a.07.07,0,0,1,.06-.06h6.45l0,0a.16.16,0,0,1,0,.06c0,.1,0,.2,0,.3a.43.43,0,0,0,0,.25s0,0,0,0,0,.08,0,.12a.14.14,0,0,0,.11.16l.29.11.84.33c.09,0,.16.1.27.07a.1.1,0,0,1,.06,0,1.27,1.27,0,0,0,.33.17l1.4.55,1.62.64.24.1v0s0,0,0,0H575a.07.07,0,0,0-.07.05s0,.08,0,.13,0,.35,0,.53c0,.61-.06,1.22-.06,1.83,0,.44,0,.89-.05,1.33s0,.91,0,1.37,0,.93,0,1.39c0,.2,0,.39,0,.59a.13.13,0,0,1-.07.1l-.9.54-3.95,2.37-.1.06a.13.13,0,0,0-.08.12c0,.18,0,.37,0,.55s0,.36,0,.55,0,.52.05.78a.09.09,0,0,0,.07.08l.07,0,1.7.39.87.2.76.15c.06,0,.08,0,.07.09l-.1.52-.13.64-.18.89c0,.19-.08.37-.11.56a1,1,0,0,0,0,.19c0,.15,0,.3,0,.44a.38.38,0,0,1,0,.1s0,0,0,0h0l-.61,0H572c-.33,0-.67,0-1-.05l-.44,0-.68,0a.08.08,0,0,0-.08.07c0,.11,0,.22,0,.34s0,.18,0,.27c0,.27,0,.55,0,.82s0,.28,0,.42,0,.13,0,.19c0,.28,0,.56,0,.84s0,.29,0,.44,0,.13,0,.19c0,.27,0,.55,0,.82s0,.28,0,.42,0,.1,0,.15c0,.25,0,.51,0,.76a4.83,4.83,0,0,0,0,.55,1.65,1.65,0,0,1,0,.19c0,.27,0,.55,0,.82s0,.39,0,.59,0,.51,0,.76a4.62,4.62,0,0,0,0,.55,1.4,1.4,0,0,1,0,.17c0,.27,0,.55,0,.82s0,.38,0,.57,0,.46,0,.7,0,.45,0,.67,0,.24,0,.36,0,.13,0,.19a.09.09,0,0,0,.06.09l.24.11,1.35.59.15.07a.1.1,0,0,1,.06.09s0,.06,0,.08q0,.78,0,1.56a.28.28,0,0,1,0,.08h0l-.06,0-.32-.23-.08,0h0v0a.52.52,0,0,0,0,.1l.7,1.51.59,1.27a.61.61,0,0,1,.06.27c0,1,0,2,0,3a3.48,3.48,0,0,1,0,.44c0,.2-.06.39-.09.58a.18.18,0,0,1,0,.1l-.28.3-2.67,2.83-1.67,1.77-.07.09a0,0,0,0,0,0,.05l.15.07,2.94,1.14a3.34,3.34,0,0,1,.63.32l2.54,1.64.16.09h0l.1-.19a.12.12,0,0,1,.1-.06h.46c.25,0,.5,0,.76,0h.51c.24,0,.47,0,.71,0s.37,0,.56,0,.47,0,.71,0,.37,0,.56,0,.47,0,.71,0h.46l.83,0c.29,0,.59,0,.88,0a.26.26,0,0,1,.16,0l.66.44c.64.42,1.25.88,1.87,1.32l1.41,1,.22.17a.12.12,0,0,1,0,.07c0,.13,0,.25,0,.38,0,.91,0,1.83,0,2.74,0,1.12,0,2.23,0,3.35,0,.15,0,.29,0,.44a.56.56,0,0,1,0,.25l-.25.6c0,.07-.07.08-.15.06l-.79-.22-1.62-.45-.09,0-.07,0-.06.07L581.39,326l-1,1.35-.07.09a.13.13,0,0,1-.12.05h-.07l-.69-.14a.87.87,0,0,1-.26-.1l-1.34-.77a.55.55,0,0,0-.43-.12c-.21,0-.42,0-.63,0h-.29l-.56,0-1.46-.06a.21.21,0,0,0-.17.06l-.29.29-.88.88-1.33,1.32,0,0a1,1,0,0,1-.38.25l-2.5,1.06-.59.25a.36.36,0,0,0-.19.16l-.27.43-.07.11a.09.09,0,0,1-.08,0h-.27l-.44,0-.39,0-.37,0a3.45,3.45,0,0,0-.44,0h0c-.33,0-.26,0-.41-.19l-.24-.39a.34.34,0,0,0-.17-.14l-1.33-.58-1.79-.78a.81.81,0,0,1-.27-.18l-2.1-2.14-.46-.47a.18.18,0,0,0-.15-.06h-.22a4.84,4.84,0,0,1-.51,0l-.49,0-.37,0-.51,0h-.37l-.63,0a.26.26,0,0,0-.11,0l-.14.08-1.31.77a.79.79,0,0,1-.27.1l-.73.15a.1.1,0,0,1-.1,0l-.22-.31-2.41-3.47v0c-.23-.3-.09-.26-.51-.17l-.1,0a.61.61,0,0,1-.4,0,.28.28,0,0,0-.19,0l-1.41.4-.23.07a.09.09,0,0,1-.12-.05l-.25-.62a.54.54,0,0,1,0-.14,1.16,1.16,0,0,1,0-.13q0-1.38,0-2.76C547.25,320,547.26,319.82,547.27,319.59Z" transform="translate(-526.98 -263.49)"/><polyline class="cls-3" points="37.53 1.26 33.82 5.18 33.95 10.06 37.72 13.73 37.59 15.81 35.21 17.86 35.37 21.09 37.62 20.57 37.27 32.67 35.94 33.65 35.78 36.62 35.34 41.23 38.92 47.15 34.98 49.82 28.8 49.73 25.2 52.51 25.36 60.56 27.39 60.35 29.51 64.16 33.73 62.87"/></svg>