<svg id="Layer_1" data-name="Layer 1" xmlns="http://www.w3.org/2000/svg" viewBox="0 0 103.27 178.51"><defs><style>.cls-1{fill:#d5b657;}.cls-2{fill:none;stroke:#231f20;stroke-miterlimit:10;stroke-width:1.54px;}</style></defs><title>Untitled-1</title><path class="cls-1" d="M414.63,286.57c0-2.3,0-4.66.07-7,0-.72,0-1.45.06-2.17a.41.41,0,0,1,.19-.34l.64-.47,5.7-4.19c1.39-1,2.83-2,4.27-3l.2-.14a.53.53,0,0,1,.3-.08h.32l1.48,0c.49,0,1,0,1.48.06s.95,0,1.42,0c.64,0,1.29,0,1.93.07.45,0,.9,0,1.35,0,.62,0,1.25,0,1.87.07.41,0,.82,0,1.22,0,.69,0,1.38,0,2.06.08h.13c1.57,0,3.14.12,4.71.14,1,0,.75-.11,1.15.68.15.29.28.58.42.87a.29.29,0,0,0,.33.09,3.64,3.64,0,0,0,.37-.22l2.59-1.75,4.47-3a3.85,3.85,0,0,1,.71-.37l5.89-2.4,2.28-.92.16-.09a.09.09,0,0,0,0-.14l-.11-.13-9.8-10.84-1.75-1.93a2.62,2.62,0,0,1-.23-.27.67.67,0,0,1-.11-.25c-.09-.53-.18-1.06-.25-1.6a6.88,6.88,0,0,1-.05-.78c0-.45,0-.89,0-1.34-.08-2.21-.06-4.42-.08-6.62,0-.07,0-.15,0-.22a1.59,1.59,0,0,1,.17-.81l1.42-3.22,1.93-4.36c0-.05.06-.12,0-.15s-.12,0-.16.06l-.86.67c-.08.06-.15.16-.26.13s-.08-.19-.09-.29a3.89,3.89,0,0,1,0-.39q0-1.09,0-2.17c0-.45,0-.89,0-1.34q0-.19,0-.39a.22.22,0,0,1,.13-.18l.39-.19,3.59-1.64.4-.18a.27.27,0,0,0,.17-.22s0-.07,0-.11c0-1.5.14-3,.14-4.51,0-.46,0-.93.06-1.39s0-1.19,0-1.78,0-1.45.08-2.17,0-1.19,0-1.78,0-1.48.08-2.22,0-1.22,0-1.84,0-1.45.08-2.17,0-1.26.05-1.89,0-1.41.08-2.11,0-1.22,0-1.84,0-1.45.08-2.17,0-1.22,0-1.84,0-1.45.08-2.17,0-1.22,0-1.84q0-.64,0-1.28c0-.11,0-.22,0-.33a.17.17,0,0,0-.16-.15l-.9,0-.32,0-2.64.14-1,.07-.39,0c-.56,0-1.12,0-1.67.1a2.05,2.05,0,0,1-.32,0,.18.18,0,0,1-.16-.15c0-.09,0-.18,0-.28q0-.53,0-1.06a3.61,3.61,0,0,0-.08-.94c-.12-.53-.2-1.06-.3-1.59s-.23-1.21-.34-1.81-.21-1.13-.31-1.7c-.06-.35-.13-.69-.2-1,0-.13,0-.26-.06-.39s0-.3.3-.35c.81-.17,1.63-.34,2.44-.52l4.66-1.11,1.3-.31a.27.27,0,0,0,.24-.23c0-.37.08-.74.1-1.11.06-.91.1-1.82.18-2.72,0-.37.08-.74.09-1.11a.35.35,0,0,0-.19-.33l-2-1.27-4.91-3.07-5.27-3.3-.36-.23a.42.42,0,0,1-.23-.38c0-.48,0-1,0-1.45,0-.78,0-1.56-.09-2.34s0-1.48-.06-2.23a12.55,12.55,0,0,0-.07-1.45,4.28,4.28,0,0,1,0-.5c0-.82,0-1.63-.06-2.45-.08-1.32-.06-2.63-.14-3.95s-.07-2.37-.12-3.56c0-.31,0-.63-.07-.94,0-.13-.11-.19-.27-.17a3,3,0,0,1-.77.05l0,0s0,0,0-.05l.51-.23,4-1.66,5.59-2.3a4.66,4.66,0,0,0,1.07-.5.28.28,0,0,1,.11,0,9.64,9.64,0,0,0,1.53-.57,6.7,6.7,0,0,1,1.07-.38c.12,0,.16-.09.16-.21a2.12,2.12,0,0,1,0-.49,2,2,0,0,0,0-.5c0-.15,0-.3,0-.45s0-.33,0-.5,0-.11,0-.17a.18.18,0,0,1,.16-.15l.71,0h15.94l.38,0a.14.14,0,0,1,.09.07.43.43,0,0,1,0,.16c0,.26,0,.52,0,.78a1.14,1.14,0,0,0,.09.65s0,.07,0,.09-.06.21-.07.32a.38.38,0,0,0,.3.43l.77.29c.74.29,1.48.59,2.23.88.23.09.43.26.72.18a.26.26,0,0,1,.17.07,3.36,3.36,0,0,0,.88.46l3.69,1.45,4.28,1.69.64.27s0,0,0,0,0,.07-.07.07h-.77a.19.19,0,0,0-.17.14c0,.11,0,.22,0,.33,0,.46,0,.93,0,1.39,0,1.61-.15,3.23-.16,4.84-.11,1.17-.06,2.34-.13,3.5s-.06,2.41-.13,3.62-.08,2.45-.12,3.67c0,.52-.06,1-.08,1.56a.33.33,0,0,1-.19.27l-2.38,1.43-10.43,6.26-.26.16a.34.34,0,0,0-.2.32c0,.48,0,1,.07,1.45s.06,1,.11,1.44c.07.68.1,1.37.14,2.05a.24.24,0,0,0,.18.21l.18.06,4.48,1,2.3.52,2,.4c.16,0,.22.13.19.25-.09.46-.18.91-.27,1.37l-.34,1.7-.46,2.36c-.1.49-.2,1-.29,1.48a2.61,2.61,0,0,0,0,.5c0,.39,0,.78,0,1.17a1,1,0,0,1,0,.28s-.08.08-.12.12h-.06l-1.61-.06-.26,0c-.88,0-1.76-.1-2.64-.14l-1.16-.07c-.6,0-1.2,0-1.8-.06a.2.2,0,0,0-.2.18c0,.3,0,.59,0,.89s0,.48,0,.72c0,.72,0,1.45,0,2.17,0,.37,0,.74.06,1.11,0,.17,0,.33,0,.5,0,.74,0,1.48,0,2.23,0,.39,0,.78.06,1.17,0,.17,0,.33,0,.5,0,.72,0,1.45,0,2.17,0,.37,0,.74.06,1.11,0,.13,0,.26,0,.39,0,.67,0,1.34,0,2a12.76,12.76,0,0,0,.07,1.45,4.36,4.36,0,0,1,0,.5c0,.72,0,1.45,0,2.17,0,.52.06,1,.08,1.56s0,1.34,0,2a12.2,12.2,0,0,0,.07,1.45,3.69,3.69,0,0,1,0,.44c0,.72,0,1.45,0,2.17,0,.5.06,1,.08,1.5s0,1.22,0,1.84,0,1.19.08,1.78c0,.31,0,.63,0,.95s0,.33,0,.5a.23.23,0,0,0,.15.23l.62.29,3.57,1.55.4.18a.26.26,0,0,1,.16.23c0,.07,0,.15,0,.22q0,2.06,0,4.12a.74.74,0,0,1,0,.21.07.07,0,0,1-.06,0,.74.74,0,0,1-.17-.08l-.83-.62a1.29,1.29,0,0,0-.22-.11h-.06s0,0,0,0a1.36,1.36,0,0,0,.07.26l1.84,4,1.55,3.36a1.61,1.61,0,0,1,.15.7c0,2.63,0,5.27-.06,7.9a9.18,9.18,0,0,1-.11,1.16c-.07.51-.17,1-.25,1.54a.48.48,0,0,1-.13.25l-.73.78L474,257.08l-4.4,4.66-.19.22a.11.11,0,0,0,0,.14l.4.18c2.58,1,5.16,2,7.75,3a8.82,8.82,0,0,1,1.66.84l6.72,4.33c.14.09.28.17.43.24a.13.13,0,0,0,.11,0c.1-.16.18-.33.28-.5a.31.31,0,0,1,.25-.15h.26l1,0c.67,0,1.33,0,2-.08.45,0,.9,0,1.35,0,.62,0,1.25,0,1.87-.07s1,0,1.48,0,1.25,0,1.87-.07,1,0,1.48,0,1.25,0,1.87-.07c.41,0,.82,0,1.22,0,.73,0,1.46,0,2.19-.08s1.55,0,2.32-.05a.68.68,0,0,1,.41.13l1.73,1.16c1.7,1.11,3.3,2.32,4.95,3.48l3.72,2.67c.2.14.39.29.58.44a.31.31,0,0,1,.11.19c0,.33.06.67.06,1,0,2.41,0,4.83.08,7.24.08,2.95.07,5.9.12,8.85,0,.39,0,.78.06,1.17a1.47,1.47,0,0,1-.11.66L517,298c-.07.17-.19.22-.41.16l-2.08-.59-4.29-1.2a1.23,1.23,0,0,0-.25-.06.28.28,0,0,0-.17.05.85.85,0,0,0-.15.18l-5,7-2.52,3.56-.18.23a.33.33,0,0,1-.33.13l-.19,0-1.82-.37a2.3,2.3,0,0,1-.7-.27l-3.54-2a1.45,1.45,0,0,0-1.13-.32c-.56,0-1.12,0-1.67-.08-.25,0-.52,0-.77,0-.49,0-1,0-1.48-.07-1.29-.07-2.58-.11-3.86-.17a.55.55,0,0,0-.45.16l-.76.76L483,307.31l-3.5,3.49-.13.13a2.74,2.74,0,0,1-1,.67c-2.2.93-4.39,1.87-6.59,2.81-.52.22-1,.45-1.57.65a1,1,0,0,0-.49.42c-.23.38-.47.75-.71,1.12l-.19.29a.24.24,0,0,1-.22.1c-.24,0-.48,0-.71,0-.38-.05-.77-.06-1.16-.08s-.69-.06-1-.06-.64,0-1,.06a9.11,9.11,0,0,0-1.16.08h-.06c-.87,0-.69.13-1.1-.5-.22-.34-.42-.69-.63-1a.9.9,0,0,0-.45-.37l-3.51-1.52-4.72-2.05a2.15,2.15,0,0,1-.7-.47l-5.54-5.65-1.21-1.23a.48.48,0,0,0-.39-.15c-.19,0-.39,0-.58,0a12.79,12.79,0,0,1-1.35.07c-.43,0-.86,0-1.29.07s-.64,0-1,0-.9,0-1.35.07-.64,0-1,0c-.56,0-1.12,0-1.67.1a.69.69,0,0,0-.3.09l-.37.22-3.46,2a2.1,2.1,0,0,1-.7.26c-.65.12-1.29.27-1.94.4a.25.25,0,0,1-.27-.1l-.57-.81-6.37-9.16,0,0c-.6-.78-.24-.68-1.34-.46-.08,0-.17,0-.25,0a1.62,1.62,0,0,1-1.07,0,.74.74,0,0,0-.5,0l-3.73,1.06-.61.17a.25.25,0,0,1-.31-.14c-.22-.54-.45-1.08-.66-1.63a1.43,1.43,0,0,1-.07-.38,3.07,3.07,0,0,1,0-.33q0-3.65.07-7.29C414.57,287.74,414.61,287.18,414.63,286.57Z" transform="translate(-414.49 -138.49)"/><polyline class="cls-2" points="45.66 3.33 35.86 13.68 36.19 26.56 46.15 36.24 45.83 41.73 39.53 47.14 39.94 55.67 45.9 54.3 44.96 86.26 41.46 88.84 41.03 96.66 39.87 108.85 49.33 124.47 38.92 131.52 22.61 131.29 13.1 138.62 13.54 159.88 18.9 159.32 24.49 169.37 35.63 165.98"/></svg>