<svg id="Layer_1" data-name="Layer 1" xmlns="http://www.w3.org/2000/svg" viewBox="0 0 114.64 57.16"><defs><style>.cls-1{fill:#d6b757;}.cls-2{fill:none;stroke:#231f20;stroke-miterlimit:10;stroke-width:2.19px;}</style></defs><title>Untitled-2</title><path class="cls-1" d="M386.95,372.66l.38.8-7.7,6.5a9.52,9.52,0,0,1,4.62,1.3,8.59,8.59,0,0,1,3.56,3.61,10.34,10.34,0,0,1,1.21,4.84,13.94,13.94,0,0,1-2.44,7.74,18.48,18.48,0,0,1-6.94,6.13,18.09,18.09,0,0,1-8.49,2.41,13,13,0,0,1-7-2,12.41,12.41,0,0,1-4.66-4.89,14,14,0,0,1-1.51-6.48,16.48,16.48,0,0,1,1.69-7.4,27.15,27.15,0,0,1,6.27-7.56l8.53-7.73a34.7,34.7,0,0,0,5.56,2.62,12.67,12.67,0,0,0,3.94.65A7.85,7.85,0,0,0,386.95,372.66Zm-20.44,5.93a19.4,19.4,0,0,0-3.41,5.35,15.94,15.94,0,0,0-1,5.83,15.76,15.76,0,0,0,.64,4.72,15.5,15.5,0,0,0,1.91,3.95,6.75,6.75,0,0,0,1.52-2.12,10.9,10.9,0,0,0,.32-3.23Zm7.17,6.87a16.14,16.14,0,0,0-2.78,1.87v4a8.68,8.68,0,0,1-.23,2.49,3.58,3.58,0,0,1-1,1.34l-.76.67-3.62,3.47a14.08,14.08,0,0,0,3.86,3.38,10.57,10.57,0,0,0,4.53,1.26Zm-2.43-11.3-.36.41V386l9.87-8.48A92.82,92.82,0,0,1,371.25,374.16Zm3.35,16.62a11.17,11.17,0,0,0,2.7,1.64,7.31,7.31,0,0,0,2.7.48,7.7,7.7,0,0,0,2.49-.39,13.86,13.86,0,0,0,2.89-1.52,8.57,8.57,0,0,0-1.94-4.09,7.41,7.41,0,0,0-5.74-2.55,8.43,8.43,0,0,0-3.1.65Zm0,6.7a9.64,9.64,0,0,1,5-1.61,9.74,9.74,0,0,1,4.83,1.47,12.52,12.52,0,0,0,1.08-4.86v-.31a16.56,16.56,0,0,1-3.06,1.46,8.36,8.36,0,0,1-2.53.37,8,8,0,0,1-2.64-.46,11.86,11.86,0,0,1-2.68-1.37Zm0,6.5a10.29,10.29,0,0,0,3.21-.63,12.88,12.88,0,0,0,3.59-2.17,15,15,0,0,0,2.57-2.94,10.82,10.82,0,0,0-4.51-1.21,8.94,8.94,0,0,0-4.85,1.59Z" transform="translate(-358.01 -355.84)"/><path class="cls-1" d="M429,382.42l.76.25a10.57,10.57,0,0,0-1.45,2.25A5.92,5.92,0,0,0,428,387v7.45a5.08,5.08,0,0,0,.32,2.32.91.91,0,0,0,.76.46,1.29,1.29,0,0,0,.48-.1q.15-.08.9-.6l.52.54-4.48,3.22a7.53,7.53,0,0,1-2.18-1.88,4.54,4.54,0,0,1-.61-2.32l-6.4,4.2q-3.62-2.45-3.62-4.84a6,6,0,0,1,.78-3A20.22,20.22,0,0,1,418,388.2l-2.54-4.5.29-.45q.82.05,1.22.05a6.51,6.51,0,0,0,4.38-1.63,17,17,0,0,0,3.36,1.19,12.6,12.6,0,0,0,2.79.45,1.4,1.4,0,0,0,.67-.13A4,4,0,0,0,429,382.42Zm-5.29,3.33-7.21-1.84,2.57,4.51,4.65,1.81Zm0,5.21-5.1-2a8,8,0,0,0-1.18,3.75q0,2.84,3.1,4.68l3.18-2.13Z" transform="translate(-358.01 -355.84)"/><path class="cls-1" d="M442.4,375.25v.45a5.15,5.15,0,0,0-2.35,1.76,5.82,5.82,0,0,0-.69,3.16v15.56l2.4,1.49.93-.63.53.63L439,400.32a21.62,21.62,0,0,0-2.86-1.84,12.57,12.57,0,0,0-2.5-.82v-.38a2.48,2.48,0,0,0,.92-.75,2.76,2.76,0,0,0,.45-1.07q0-.21.06-2.1V380.86a11.13,11.13,0,0,0-.15-2.21,3.1,3.1,0,0,0-.59-1.19,6.43,6.43,0,0,0-1.5-1.27l.34-.35a7.62,7.62,0,0,1,3.45,1.86,10.4,10.4,0,0,1,2.85-1.89A8.65,8.65,0,0,1,442.4,375.25Z" transform="translate(-358.01 -355.84)"/><path class="cls-1" d="M454.53,375.25v.45a5.15,5.15,0,0,0-2.35,1.76,5.82,5.82,0,0,0-.69,3.16v15.56l2.4,1.49.93-.63.53.63-4.23,2.66a21.62,21.62,0,0,0-2.86-1.84,12.57,12.57,0,0,0-2.5-.82v-.38a2.48,2.48,0,0,0,.92-.75,2.76,2.76,0,0,0,.45-1.07q0-.21.06-2.1V380.86a11.13,11.13,0,0,0-.15-2.21,3.1,3.1,0,0,0-.59-1.19,6.43,6.43,0,0,0-1.5-1.27l.34-.35a7.62,7.62,0,0,1,3.45,1.86,10.4,10.4,0,0,1,2.85-1.89A8.65,8.65,0,0,1,454.53,375.25Z" transform="translate(-358.01 -355.84)"/><path class="cls-1" d="M466.7,381.67l5.95,5.76-9.45,5.5v3.18l4.89,1.61,3.31-1.87.46.53-6.82,4A30.23,30.23,0,0,0,461.6,399a36.3,36.3,0,0,0-3.84-.84v-.44a1.93,1.93,0,0,0,1-.87,6.4,6.4,0,0,0,.24-2.23v-10q2-.59,3.29-1.08Q463.2,383.16,466.7,381.67Zm-3.21,2-.3.12v7.95l5.56-3.23Z" transform="translate(-358.01 -355.84)"/><path class="cls-1" d="M396.43,356.12l-2.07,1-.09,1.21,2,1.29-.09,1,.11.05c-3.12,1.09-5.53,11-5.49,23,0,11.41,2.28,20.88,5.17,22.75l-.52.28L393,407l-1.08,1.79-.27.54.19,1.52,3.26,2,3.7.17,5.42,0,3.15-2.16-.38-3.66-1.63-.08-2.44-1.15-.27-.13c3.06-1.7,5.37-11.43,5.33-23.17,0-11-2.12-20.15-4.9-22.69l.11-.62,1.8-1-.28-1.65-2.08-.77-1.54-.08Z" transform="translate(-358.01 -355.84)"/><path class="cls-2" d="M397.37,367.72c-3.14,1.84-3.3,6.79-3.6,9.89a56.64,56.64,0,0,0,.39,16.15c.43,2.25.85,5.49,2.73,7.12" transform="translate(-358.01 -355.84)"/></svg>